<mxfile host="app.diagrams.net" modified="2021-03-16T03:01:05.321Z" agent="5.0 (Windows NT 10.0; Win64; x64) AppleWebKit/537.36 (KHTML, like Gecko) Chrome/89.0.4389.90 Safari/537.36" etag="KvGO4Bfob2LSYK0TA_E-" version="14.4.8" type="github">
  <diagram id="Enc7GwLfb1MbX-eJnPzi" name="ページ1">
    <mxGraphModel dx="1038" dy="548" grid="1" gridSize="10" guides="1" tooltips="1" connect="1" arrows="1" fold="1" page="1" pageScale="1" pageWidth="827" pageHeight="1169" math="0" shadow="0">
      <root>
        <mxCell id="0" />
        <mxCell id="1" parent="0" />
        <mxCell id="wJDC61leOi9-Ts4pPHVV-12" value="" style="rounded=1;whiteSpace=wrap;html=1;dashed=1;" vertex="1" parent="1">
          <mxGeometry x="520" y="170" width="240" height="230" as="geometry" />
        </mxCell>
        <mxCell id="wJDC61leOi9-Ts4pPHVV-10" value="" style="rounded=1;whiteSpace=wrap;html=1;dashed=1;" vertex="1" parent="1">
          <mxGeometry x="120" y="270" width="310" height="130" as="geometry" />
        </mxCell>
        <mxCell id="wJDC61leOi9-Ts4pPHVV-1" value="Database" style="rounded=0;whiteSpace=wrap;html=1;" vertex="1" parent="1">
          <mxGeometry x="294" y="320" width="120" height="40" as="geometry" />
        </mxCell>
        <mxCell id="wJDC61leOi9-Ts4pPHVV-2" value="MongoDB" style="text;html=1;align=center;verticalAlign=middle;resizable=0;points=[];autosize=1;" vertex="1" parent="1">
          <mxGeometry x="319" y="300" width="70" height="20" as="geometry" />
        </mxCell>
        <mxCell id="wJDC61leOi9-Ts4pPHVV-3" value="画像データ" style="rounded=0;whiteSpace=wrap;html=1;" vertex="1" parent="1">
          <mxGeometry x="130" y="320" width="120" height="40" as="geometry" />
        </mxCell>
        <mxCell id="wJDC61leOi9-Ts4pPHVV-4" value="DB_PC" style="text;html=1;align=center;verticalAlign=middle;resizable=0;points=[];autosize=1;fillColor=#f5f5f5;strokeColor=#666666;fontColor=#333333;" vertex="1" parent="1">
          <mxGeometry x="130" y="260" width="60" height="20" as="geometry" />
        </mxCell>
        <mxCell id="wJDC61leOi9-Ts4pPHVV-5" value="アノテーションツール" style="rounded=0;whiteSpace=wrap;html=1;" vertex="1" parent="1">
          <mxGeometry x="570" y="335" width="140" height="40" as="geometry" />
        </mxCell>
        <mxCell id="wJDC61leOi9-Ts4pPHVV-6" value="自動学習ソフト" style="rounded=0;whiteSpace=wrap;html=1;" vertex="1" parent="1">
          <mxGeometry x="570" y="215" width="140" height="40" as="geometry" />
        </mxCell>
        <mxCell id="wJDC61leOi9-Ts4pPHVV-7" value="エッジ" style="rounded=0;whiteSpace=wrap;html=1;" vertex="1" parent="1">
          <mxGeometry x="210" y="140" width="140" height="40" as="geometry" />
        </mxCell>
        <mxCell id="wJDC61leOi9-Ts4pPHVV-8" value="量産ライン" style="text;html=1;align=center;verticalAlign=middle;resizable=0;points=[];autosize=1;" vertex="1" parent="1">
          <mxGeometry x="210" y="120" width="80" height="20" as="geometry" />
        </mxCell>
        <mxCell id="wJDC61leOi9-Ts4pPHVV-11" value="" style="endArrow=none;html=1;entryX=1;entryY=0.5;entryDx=0;entryDy=0;exitX=0;exitY=0.5;exitDx=0;exitDy=0;" edge="1" parent="1" source="wJDC61leOi9-Ts4pPHVV-1" target="wJDC61leOi9-Ts4pPHVV-3">
          <mxGeometry width="50" height="50" relative="1" as="geometry">
            <mxPoint x="390" y="300" as="sourcePoint" />
            <mxPoint x="440" y="250" as="targetPoint" />
          </mxGeometry>
        </mxCell>
        <mxCell id="wJDC61leOi9-Ts4pPHVV-15" value="" style="endArrow=none;html=1;entryX=0.5;entryY=1;entryDx=0;entryDy=0;" edge="1" parent="1" target="wJDC61leOi9-Ts4pPHVV-7">
          <mxGeometry width="50" height="50" relative="1" as="geometry">
            <mxPoint x="280" y="270" as="sourcePoint" />
            <mxPoint x="260" y="350" as="targetPoint" />
          </mxGeometry>
        </mxCell>
        <mxCell id="wJDC61leOi9-Ts4pPHVV-16" value="" style="endArrow=none;html=1;entryX=1;entryY=0.5;entryDx=0;entryDy=0;exitX=0;exitY=0.25;exitDx=0;exitDy=0;" edge="1" parent="1" source="wJDC61leOi9-Ts4pPHVV-12" target="wJDC61leOi9-Ts4pPHVV-7">
          <mxGeometry width="50" height="50" relative="1" as="geometry">
            <mxPoint x="290" y="280" as="sourcePoint" />
            <mxPoint x="290" y="190" as="targetPoint" />
          </mxGeometry>
        </mxCell>
        <mxCell id="wJDC61leOi9-Ts4pPHVV-17" value="" style="endArrow=none;html=1;entryX=1;entryY=0.5;entryDx=0;entryDy=0;exitX=0;exitY=0.75;exitDx=0;exitDy=0;" edge="1" parent="1" source="wJDC61leOi9-Ts4pPHVV-12" target="wJDC61leOi9-Ts4pPHVV-10">
          <mxGeometry width="50" height="50" relative="1" as="geometry">
            <mxPoint x="290" y="280" as="sourcePoint" />
            <mxPoint x="290" y="190" as="targetPoint" />
          </mxGeometry>
        </mxCell>
      </root>
    </mxGraphModel>
  </diagram>
</mxfile>
